# xmcd CD database file
# Copyright (C) 1993-1998 Ti Kan
#
# Track frame offsets:
#	150
#	11808
#	24488
#	37548
#	52350
#	65088
#	76003
#	86565
#	98900
#	110783
#	126005
#	139365
#	150625
#	163710
#	175808
#	184475
#	197613
#	208885
#	220310
#	232780
#
# Disc length: 3268 seconds
#
# Revision: 1
# Processed by: cddbd v1.4b41PL1 Copyright (c) Steve Scherf et al.
# Submitted via: CDValet v3.31 - Copyright (c) 1997 Greg Leichner
#
DISCID=1a0cc214
DTITLE=Sonny Boy Williamson - Vol.1 Don't start me to talkin'
DYEAR=1900
DGENRE=
TTITLE0=Don't start me to talkin'
TTITLE1=All my love in vain
TTITLE2=Let me explain
TTITLE3=The key
TTITLE4=Keep it to yourself
TTITLE5=I don't know
TTITLE6=Fattening frogs for snakes
TTITLE7=Dissatisfied
TTITLE8="99"
TTITLE9=Cross my heart
TTITLE10=Wake up baby
TTITLE11=Your funeral and my trail
TTITLE12=Too young to die
TTITLE13=Trust my baby
TTITLE14=Chekin' up on my baby
TTITLE15=Sad to be alone
TTITLE16=Down child
TTITLE17=Peach tree
TTITLE18=The hunt
TTITLE19=One way out
EXTD=Label: MoviePlay\nCode:RTS 33005\nCollection: "ROOTS"\nADD
EXTT0=
EXTT1=
EXTT2=
EXTT3=
EXTT4=
EXTT5=
EXTT6=
EXTT7=
EXTT8=
EXTT9=
EXTT10=
EXTT11=
EXTT12=
EXTT13=
EXTT14=
EXTT15=
EXTT16=
EXTT17=
EXTT18=
EXTT19=
PLAYORDER=
